#!OML:ASF G:\JayActor3\Patient Classification 1\Patient 1\Session 6\male.ASF
:FULLY-SPECIFIED
:DEGREES
3283
root -4.61216 15.5001 13.1315 220.004 -21.101 -176.082
lowerback 47.2354 0.932179 3.07199
upperback 11.088 -0.805499 1.09549
thorax -8.95122 -1.63486 0.178586
lowerneck 12.4271 0.222317 1.53907
upperneck -16.4863 1.25711 4.76045
head -7.12969 -0.0538033 1.18516
rclavicle -4.57205e-014 -1.66979e-014
rhumerus -46.1393 -0.68163 -80.7664
rradius 83.6407
rwrist -4.46512
rhand -29.1676 0.728812
rfingers 7.12502
rthumb -2.51359 -29.2361
lclavicle -4.57205e-014 -1.66979e-014
lhumerus -55.9776 -6.784 81.3657
lradius 83.393
lwrist 36.581
lhand -26.9746 -0.911364
lfingers 7.12502
lthumb -0.395562 29.068
rfemur -83.5738 -0.769725 24.6938
rtibia 59.7161
rfoot -15.4285 -8.99737
rtoes 6.10339
lfemur -82.1865 12.8869 -33.0805
ltibia 57.4158
lfoot -15.7588 0.172247
ltoes 10.0119
3284
root -4.61924 15.4716 13.1373 220.583 -21.0146 -176.051
lowerback 48.7923 0.87508 3.20448
upperback 10.1794 -0.773513 1.03638
thorax -8.96355 -1.64906 0.140569
lowerneck 12.9674 0.318712 1.40048
upperneck -17.1064 1.39799 4.72317
head -7.4301 -0.00111335 1.18891
rclavicle 1.23246e-014 -4.12478e-015
rhumerus -46.1537 -0.800559 -80.8185
rradius 83.2785
rwrist -4.90337
rhand -29.0047 0.88279
rfingers 7.12502
rthumb -2.35627 -29.0839
lclavicle 1.23246e-014 -4.12478e-015
lhumerus -56.1579 -6.58796 81.5423
lradius 82.6582
lwrist 36.5635
lhand -26.7817 -1.20394
lfingers 7.12502
lthumb -0.209239 28.7757
rfemur -84.444 -1.0658 25.1364
rtibia 59.9483
rfoot -15.22 -8.46047
rtoes 6.39658
lfemur -83.1382 12.9718 -33.5128
ltibia 57.7377
lfoot -15.7559 -0.140851
ltoes 10.1818
3285
root -4.62636 15.4464 13.1414 221.086 -20.9543 -176.049
lowerback 49.4733 0.870124 3.28929
upperback 10.1869 -0.76882 1.03959
thorax -9.05415 -1.66124 0.117207
lowerneck 13.3925 0.367682 1.33142
upperneck -17.6128 1.4742 4.66265
head -7.6732 0.0240602 1.17827
rclavicle -5.96354e-015 3.95581e-014
rhumerus -46.0564 -0.809108 -80.8991
rradius 82.71
rwrist -5.40045
rhand -28.7807 1.02272
rfingers 7.12502
rthumb -2.13991 -28.9463
lclavicle -5.96354e-015 3.95581e-014
lhumerus -56.1979 -6.55854 81.7366
lradius 81.8155
lwrist 36.5981
lhand -26.6406 -1.49663
lfingers 7.12502
lthumb -0.0729709 28.4831
rfemur -85.2208 -1.36168 25.5442
rtibia 60.1897
rfoot -15.015 -7.99179
rtoes 6.59118
lfemur -83.9491 13.0063 -33.8958
ltibia 58.0241
lfoot -15.7452 -0.39194
ltoes 10.2797
3286
root -4.63333 15.4234 13.1446 221.555 -20.9161 -176.078
lowerback 50.1032 0.8721 3.36192
upperback 10.1742 -0.748563 1.06227
thorax -9.15521 -1.66443 0.113411
lowerneck 13.7093 0.367083 1.33651
upperneck -18.0138 1.48253 4.5632
head -7.86155 0.021192 1.14812
rclavicle -1.70955e-014 -3.65764e-014
rhumerus -45.8489 -0.720656 -80.9814
rradius 81.9424
rwrist -5.86345
rhand -28.497 1.10376
rfingers 7.12502
rthumb -1.8659 -28.8678
lclavicle -1.70955e-014 -3.65764e-014
lhumerus -56.0907 -6.70862 81.9724
lradius 80.8958
lwrist 36.6941
lhand -26.551 -1.77372
lfingers 7.12502
lthumb 0.0135358 28.206
rfemur -85.9463 -1.6302 25.8709
rtibia 60.4393
rfoot -14.8581 -7.57405
rtoes 6.91711
lfemur -84.6708 12.9743 -34.2353
ltibia 58.2794
lfoot -15.725 -0.560116
ltoes 10.2909
3287
root -4.64057 15.4004 13.1481 222.058 -20.9017 -176.147
lowerback 50.5707 0.831668 3.46011
upperback 10.1582 -0.755883 1.05823
thorax -9.23429 -1.67261 0.0767741
lowerneck 13.9528 0.337851 1.41776
upperneck -18.3372 1.45471 4.42474
head -8.01051 0.00361083 1.09526
rclavicle -1.31198e-014 -3.06625e-014
rhumerus -45.523 -0.520759 -81.1192
rradius 80.9847
rwrist -6.21616
rhand -28.2393 1.08268
rfingers 7.12502
rthumb -1.61707 -28.8909
lclavicle -1.31198e-014 -3.06625e-014
lhumerus -55.8435 -7.01701 82.1836
lradius 79.9343
lwrist 36.8441
lhand -26.5174 -2.02143
lfingers 7.12502
lthumb 0.0460469 27.9583
rfemur -86.6966 -1.86236 26.0906
rtibia 60.6881
rfoot -14.7311 -7.24945
rtoes 7.24424
lfemur -85.3807 12.8372 -34.5414
ltibia 58.5099
lfoot -15.6898 -0.6327
ltoes 10.2489
3288
root -4.6469 15.3806 13.1503 222.502 -20.879 -176.217
lowerback 50.9882 0.787162 3.54985
upperback 10.1328 -0.76897 1.03334
thorax -9.31567 -1.68082 0.0231669
lowerneck 14.1244 0.299292 1.53871
upperneck -18.5815 1.41526 4.27688
head -8.12038 -0.0178256 1.03295
rclavicle 2.38542e-015 -6.7388e-014
rhumerus -45.1039 -0.135993 -81.3853
rradius 79.9024
rwrist -6.12434
rhand -28.4037 0.314552
rfingers 7.12502
rthumb -1.77581 -29.6578
lclavicle 2.38542e-015 -6.7388e-014
lhumerus -55.4668 -7.4651 82.3561
lradius 78.9596
lwrist 37.0198
lhand -26.4993 -2.24485
lfingers 7.12502
lthumb 0.0635101 27.7349
rfemur -87.3439 -2.00876 26.196
rtibia 60.9065
rfoot -14.6641 -7.00828
rtoes 7.60973
lfemur -85.9872 12.6857 -34.7899
ltibia 58.7075
lfoot -15.6645 -0.639733
ltoes 10.2205
3289
root -4.65192 15.3654 13.1504 222.844 -20.8371 -176.263
lowerback 51.3907 0.736016 3.64733
upperback 10.1053 -0.790626 0.973422
thorax -9.39629 -1.69195 -0.0684195
lowerneck 14.2286 0.269957 1.64779
upperneck -18.75 1.38748 4.16494
head -8.19367 -0.0336292 0.982379
rclavicle -8.90555e-014 -7.11649e-014
rhumerus -44.5966 0.396698 -81.7714
rradius 78.7352
rwrist -5.69452
rhand -28.8154 -1.05906
rfingers 7.12502
rthumb -2.17341 -31.0277
lclavicle -8.90555e-014 -7.11649e-014
lhumerus -54.9683 -8.03094 82.4592
lradius 77.994
lwrist 37.1889
lhand -26.4834 -2.44177
lfingers 7.12502
lthumb 0.0788375 27.538
rfemur -87.8293 -2.04405 26.2054
rtibia 61.0719
rfoot -14.6297 -6.9191
rtoes 7.68181
lfemur -86.4494 12.5666 -34.9627
ltibia 58.8686
lfoot -15.6672 -0.597426
ltoes 10.181
3290
root -4.65594 15.3534 13.1494 223.12 -20.7897 -176.282
lowerback 51.7156 0.672131 3.7501
upperback 10.0816 -0.82619 0.887696
thorax -9.46208 -1.70691 -0.186256
lowerneck 14.2692 0.260864 1.71992
upperneck -18.8357 1.3844 4.10597
head -8.22896 -0.0374897 0.951954
rclavicle -2.90226e-014 3.42904e-015
rhumerus -44.0306 1.07556 -82.262
rradius 77.5328
rwrist -5.00616
rhand -29.3326 -3.00009
rfingers 7.12502
rthumb -2.67295 -32.9631
lclavicle -2.90226e-014 3.42904e-015
lhumerus -54.3713 -8.66903 82.4907
lradius 77.0536
lwrist 37.3009
lhand -26.463 -2.59099
lfingers 7.12502
lthumb 0.0985638 27.3887
rfemur -88.1957 -1.9918 26.1378
rtibia 61.1795
rfoot -14.6408 -6.91389
rtoes 7.72816
lfemur -86.8122 12.4636 -35.0605
ltibia 58.9897
lfoot -15.6918 -0.515376
ltoes 10.155
3291
root -4.6593 15.3441 13.1478 223.349 -20.7501 -176.283
lowerback 51.9323 0.58617 3.86668
upperback 10.0637 -0.880394 0.779775
thorax -9.50812 -1.7269 -0.329127
lowerneck 14.227 0.283432 1.77952
upperneck -18.8304 1.42403 4.092
head -8.21984 -0.021835 0.932954
rclavicle 2.74323e-014 5.96354e-015
rhumerus -43.4375 1.85723 -82.8164
rradius 76.3346
rwrist -4.26058
rhand -29.7647 -5.28094
rfingers 7.12502
rthumb -3.09026 -35.2383
lclavicle 2.74323e-014 5.96354e-015
lhumerus -53.6962 -9.36268 82.4517
lradius 76.1516
lwrist 37.3432
lhand -26.4425 -2.68875
lfingers 7.12502
lthumb 0.118324 27.291
rfemur -88.4727 -1.88852 26.0243
rtibia 61.2349
rfoot -14.6818 -6.96773
rtoes 7.74686
lfemur -87.0957 12.3623 -35.0929
ltibia 59.0712
lfoot -15.7385 -0.41052
ltoes 10.1935
3292
root -4.66278 15.3372 13.1457 223.53 -20.7287 -176.271
lowerback 52.043 0.477704 4.00667
upperback 10.0494 -0.946449 0.665539
thorax -9.53743 -1.74977 -0.48694
lowerneck 14.1128 0.327627 1.8118
upperneck -18.7376 1.48973 4.12195
head -8.16928 0.00686428 0.929424
rclavicle 3.26007e-014 1.1281e-014
rhumerus -42.8478 2.67708 -83.3643
rradius 75.1559
rwrist -3.63991
rhand -29.9244 -7.35033
rfingers 7.12502
rthumb -3.24444 -37.3054
lclavicle 3.26007e-014 1.1281e-014
lhumerus -52.9638 -10.1022 82.3655
lradius 75.2996
lwrist 37.3359
lhand -26.3833 -2.7336
lfingers 7.12502
lthumb 0.175523 27.2461
rfemur -88.6686 -1.77361 25.9058
rtibia 61.2492
rfoot -14.7251 -7.07495
rtoes 7.59159
lfemur -87.296 12.2557 -35.0647
ltibia 59.1162
lfoot -15.8063 -0.294927
ltoes 10.2836
